<?xml version="1.0" standalone="no"?>
<!DOCTYPE svg PUBLIC "-//W3C//DTD SVG 20010904//EN"
 "http://www.w3.org/TR/2001/REC-SVG-20010904/DTD/svg10.dtd">
<svg version="1.0" xmlns="http://www.w3.org/2000/svg"
 width="24px" height="24px" viewBox="0 0 512.000000 512.000000"
 preserveAspectRatio="xMidYMid meet">

<g transform="translate(0.000000,512.000000) scale(0.100000,-0.100000)"
fill="#FF0000" stroke="none">
<path d="M1316 4740 c-510 -81 -884 -508 -977 -1115 -18 -120 -16 -344 5 -440
113 -525 553 -1194 1323 -2010 302 -321 769 -765 830 -791 98 -42 125 -23 553
387 860 824 1486 1654 1675 2224 56 168 69 243 68 415 -1 705 -436 1268 -1028
1330 -352 37 -739 -132 -1097 -479 l-108 -104 -128 124 c-307 297 -623 453
-942 464 -63 2 -142 0 -174 -5z"/>
</g>
</svg>
